# xmcd CD database file
#
# Track frame offsets:
#	301
#	27361
#	64805
#	95251
#	128396
#	138306
#	161185
#	191857
#	215997
#
# Disc length: 3363 seconds
#
# Revision: 1
# Processed by: cddbd v1.5.1PL0 Copyright (c) Steve Scherf et al.
# Submitted via: CDex 1.51
#
DISCID=860d1f09
DTITLE=Tribone Trio - Paysage
DYEAR=2003
DGENRE=Jazz
TTITLE0=Venetian Bridge
TTITLE1=Paysage I
TTITLE2=Würzburg
TTITLE3=No Big Deal
TTITLE4=Refektorium
TTITLE5=B.U.T.
TTITLE6=Down South
TTITLE7=Window Seat
TTITLE8=Paysage II
EXTD=YEAR: 2003
EXTT0=
EXTT1=
EXTT2=
EXTT3=
EXTT4=
EXTT5=
EXTT6=
EXTT7=
EXTT8=
PLAYORDER=
